<svg xmlns="http://www.w3.org/2000/svg" viewBox="0 0 400 440"><defs><filter id="s"><feGaussianBlur stdDeviation="9"/></filter></defs><ellipse cx="205" cy="360" rx="125" ry="16" fill="#7b6547" opacity=".14" filter="url(#s)"/><ellipse cx="200" cy="291" rx="155" ry="73" fill="#dfd7c8"/><ellipse cx="200" cy="284" rx="155" ry="73" fill="#fffdf4"/><ellipse cx="200" cy="284" rx="131" ry="54" fill="#f1ebdc"/><g fill="#f2bf56" stroke="#d89c39" stroke-width="4"><path d="M83 266l60-76 21 24-55 82Z"/><path d="M104 305l60-76 21 24-55 82Z"/><path d="M134 318l60-76 21 24-55 82Z"/><path d="M174 305l60-76 21 24-55 82Z"/><path d="M211 314l60-76 21 24-55 82Z"/><path d="M221 271l60-76 21 24-55 82Z"/></g><g fill="#648048"><circle cx="134" cy="269" r="3"/><circle cx="221" cy="290" r="3"/><circle cx="207" cy="242" r="3"/></g></svg>